<?xml version="1.0" encoding="UTF-8" standalone="no"?>
<!-- Created with Inkscape (http://www.inkscape.org/) -->

<svg
   width="178.89029mm"
   height="83.429214mm"
   viewBox="0 0 178.89029 83.429214"
   version="1.1"
   id="svg1918"
   xml:space="preserve"
   xmlns:inkscape="http://www.inkscape.org/namespaces/inkscape"
   xmlns:sodipodi="http://sodipodi.sourceforge.net/DTD/sodipodi-0.dtd"
   xmlns="http://www.w3.org/2000/svg"
   xmlns:svg="http://www.w3.org/2000/svg"><sodipodi:namedview
     id="namedview1920"
     pagecolor="#ffffff"
     bordercolor="#000000"
     borderopacity="0.25"
     inkscape:showpageshadow="2"
     inkscape:pageopacity="0.0"
     inkscape:pagecheckerboard="0"
     inkscape:deskcolor="#d1d1d1"
     inkscape:document-units="mm"
     showgrid="false" /><defs
     id="defs1915" /><g
     inkscape:label="Layer 1"
     inkscape:groupmode="layer"
     id="layer1"
     transform="translate(-7.3040125,-141.10679)"><path
       style="fill:#4b1b7d;fill-opacity:1;stroke-width:0.264583"
       d="M 23.710584,224.25349 C 3.4563852,221.5562 1.385085,196.2592 20.688185,187.34062 c 10.807814,-4.99352 21.617835,-0.9584 21.239007,7.92801 -0.279511,6.55666 -6.655152,11.88071 -14.996962,12.52336 -3.076931,0.23705 -3.267786,-0.98258 -0.275149,-1.7583 11.837052,-3.06825 12.331714,-16.79349 0.627378,-17.40772 -13.816411,-0.72507 -20.2485292,16.69516 -9.947302,26.94047 12.589643,12.5213 36.745091,2.71326 36.848848,-14.96204 0.03046,-5.18951 -4.220276,-19.58013 -5.53012,-18.72189 -0.784162,0.5138 -2.892203,3.43384 -3.278077,4.54076 -0.339923,0.9751 -0.460316,0.99506 -1.455063,0.24127 -0.419806,-0.31812 -0.811712,-0.61459 -0.870897,-0.65883 -0.144589,-0.10806 2.675867,-4.34402 4.137404,-6.21384 1.170863,-1.49795 1.170863,-1.49795 0.290327,-5.55625 -2.292525,-10.56603 -0.730552,-18.06489 5.015595,-24.07932 1.093441,-1.14449 1.935936,-2.13303 1.872205,-2.19676 -1.136965,-1.13696 -16.82546,-2.42453 -20.750472,-1.703 -9.457589,1.73857 -15.378749,10.77728 -11.81061,18.02901 2.825969,5.74338 10.294931,5.86131 12.729928,0.20101 1.120667,-2.60506 2.129669,-1.2241 1.583505,2.16726 -2.240912,13.91479 -20.297729,9.31911 -19.473331,-4.95621 0.954252,-16.52386 19.279188,-24.316 44.372436,-18.86809 7.665858,1.66432 8.580472,1.64674 11.926806,-0.22918 0.08406,-0.0471 0.303459,0.24482 0.487543,0.64877 1.036978,2.27554 -6.163586,5.1885 -12.910675,5.22296 -8.001101,0.0409 -11.151442,9.95354 -6.888777,21.67581 1.127615,3.10093 0.952339,2.98847 2.948059,1.89149 5.318953,-2.92367 12.142725,-3.91064 13.212858,-1.91108 0.283464,0.52966 -0.396258,6.37153 -0.815398,7.00793 -0.554728,0.84226 -1.492893,0.54508 -2.142932,-0.67881 -1.533586,-2.88744 -5.378305,-3.80151 -8.727901,-2.07504 -2.566495,1.32285 -2.498428,1.02741 -1.153789,5.00783 3.3211,9.8312 3.654308,17.25727 1.099455,24.50323 -4.825688,13.68642 -19.431329,22.34567 -34.3415,20.36006 z M 94.61892,212.72345 c -2.094929,-1.07996 -2.377766,-2.87411 -2.379718,-15.09562 -0.0015,-9.59114 -0.0015,-9.59114 -1.192157,-9.59114 -1.46153,0 -1.465266,-0.0989 -0.09253,-2.44934 0.603953,-1.0341 1.966872,-3.61472 3.028709,-5.7347 1.930614,-3.8545 1.930614,-3.8545 1.944613,-0.0842 0.014,3.77031 0.014,3.77031 1.876783,3.77031 2.88341,0 2.80875,4.31745 -0.07685,4.44386 -1.785938,0.0782 -1.785938,0.0782 -1.771004,9.26042 0.01839,11.31375 0.165057,11.9113 2.708809,11.0368 1.527955,-0.52529 1.553545,3.46261 0.02689,4.19062 -1.494195,0.71253 -3.000608,0.80608 -4.073549,0.25298 z m 10.38799,0.0555 c -5.688911,-2.47293 -3.55803,-11.90911 3.96566,-17.5611 1.25677,-0.94412 1.25677,-0.94412 1.25677,-3.36205 0,-5.28321 -3.28847,-5.88703 -6.63205,-1.21777 -1.04087,1.45355 -1.04087,1.45355 -1.04087,-1.46373 0,-6.85261 7.91019,-8.70027 10.775,-2.51682 0.3971,0.8571 0.47292,2.28777 0.59475,11.22219 0.15156,11.11537 0.20187,11.46834 1.44364,10.12845 0.68036,-0.73412 0.68036,-0.73412 0.68036,1.14386 0,4.18939 -3.68987,5.37233 -5.18842,1.66336 -0.55821,-1.38159 -0.55821,-1.38159 -1.52553,-0.0352 -1.55353,2.1624 -2.71708,2.69958 -4.32931,1.99876 z m 3.72923,-4.87258 c 1.24365,-1.07054 1.4937,-2.15396 1.4844,-6.43154 -0.009,-4.04543 -0.009,-4.04543 -1.66169,-2.31841 -3.95542,4.13283 -3.79263,12.16726 0.17729,8.74995 z m 39.19632,5.02188 c -5.83746,-2.54092 -4.11339,-11.3737 3.40587,-17.44898 1.88913,-1.52634 2.35338,-4.47426 1.08954,-6.91827 -1.13928,-2.20312 -3.82684,-1.08217 -6.6724,2.78298 -0.58437,0.79375 -0.58437,0.79375 -0.59275,-2.02624 -0.0198,-6.65149 7.64949,-8.86752 10.60942,-3.06558 0.80639,1.58066 1.00694,4.22036 1.01569,13.36835 0.009,9.27205 0.061,9.57898 1.4107,8.30823 0.58185,-0.54782 0.58185,-0.54782 0.49513,1.41239 -0.18452,4.1707 -3.82794,5.18465 -5.1886,1.44396 -0.4475,-1.23025 -0.54861,-1.34618 -0.79375,-0.9101 -1.19948,2.13376 -3.5059,3.60735 -4.77885,3.05326 z m 4.36847,-6.14635 c 0.82739,-1.44522 1.20045,-8.95563 0.44485,-8.95563 -0.57756,0 -2.93877,2.68864 -3.65129,4.15762 -2.19911,4.5338 0.79379,9.01227 3.20644,4.79801 z m 12.69716,5.94155 c -2.14021,-1.1033 -2.238,-1.68656 -2.33125,-13.90499 -0.0823,-10.78177 -0.0823,-10.78177 -1.25677,-10.78177 -1.35377,0 -1.4406,-0.2318 -0.59467,-1.5875 0.31781,-0.50933 1.68346,-3.06917 3.03479,-5.68854 2.45695,-4.7625 2.45695,-4.7625 2.46388,-1.00428 0.007,3.75822 0.007,3.75822 1.79287,3.83646 1.78594,0.0782 1.78594,0.0782 1.78594,2.1949 0,2.11667 0,2.11667 -1.78594,2.1949 -1.78594,0.0782 -1.78594,0.0782 -1.78594,9.1612 0,11.68051 0.0853,12.04529 2.6141,11.17406 1.61705,-0.55711 1.74666,3.38477 0.13654,4.15258 -1.4942,0.71253 -3.00061,0.80608 -4.07355,0.25298 z M 65.250169,197.95856 c 0,-14.41979 0,-14.41979 1.852083,-14.41979 1.852084,0 1.852084,0 1.852084,14.41979 0,14.41979 0,14.41979 -1.852084,14.41979 -1.852083,0 -1.852083,0 -1.852083,-14.41979 z m 8.73125,-0.0121 c 0,-14.43188 0,-14.43188 1.785938,-14.35364 1.785937,0.0782 1.785937,0.0782 1.810099,1.33711 0.02977,1.55081 0.205237,1.76858 0.619395,0.76871 1.107937,-2.6748 4.220123,-3.56722 6.113656,-1.7531 3.062494,2.93405 3.349829,28.43327 0.320392,28.43298 -1.91823,-1.8e-4 -1.91823,-1.8e-4 -1.91823,-11.47007 0,-7.69197 -0.09631,-11.74618 -0.292412,-12.30871 -0.527124,-1.5121 -2.086763,-1.8188 -3.199757,-0.62921 -1.559793,1.66714 -1.534914,1.4497 -1.534914,13.41447 0,10.99334 0,10.99334 -1.852084,10.99334 -1.852083,0 -1.852083,0 -1.852083,-14.43188 z m 45.243751,0.0121 c 0,-14.41979 0,-14.41979 1.85208,-14.41979 1.85209,0 1.85209,0 1.86765,1.52136 0.0131,1.28456 0.0646,1.44333 0.33073,1.0201 2.64701,-4.20984 6.07788,-4.18788 7.83333,0.0501 0.45577,1.10035 0.61214,1.03312 1.66995,-0.71795 2.03648,-3.37114 5.18011,-3.37458 6.88444,-0.008 2.35144,4.64546 1.86594,26.97347 -0.58651,26.97347 -1.84416,0 -1.84416,0 -1.91823,-11.75484 -0.0722,-11.46668 -0.0877,-11.77315 -0.62939,-12.50156 -1.14198,-1.53556 -2.85663,-0.88575 -4.10148,1.55438 -0.46954,0.92036 -0.50257,1.69881 -0.50257,11.84357 0,10.85845 0,10.85845 -1.84169,10.85845 -1.84169,0 -1.84169,0 -1.91823,-11.75489 -0.0851,-13.07139 -0.0918,-13.1183 -1.91204,-13.33421 -2.83579,-0.33637 -3.32387,1.74301 -3.32387,14.1607 0,10.9284 0,10.9284 -1.85209,10.9284 -1.85208,0 -1.85208,0 -1.85208,-14.41979 z m 53.975,-7.27604 c 0,-21.69583 0,-21.69583 1.84852,-21.69583 1.84852,0 1.84852,0 1.91823,8.79739 0.0697,8.7974 0.0697,8.7974 0.63927,7.73907 1.52321,-2.83034 4.02244,-3.41557 6.07799,-1.42326 3.10425,3.00876 3.44243,28.27846 0.37844,28.27846 -1.86661,0 -1.86661,0 -1.87308,-10.78177 -0.008,-13.80597 -0.36123,-15.3269 -3.20369,-13.80566 -1.96141,1.04971 -2.08151,1.83785 -2.08151,13.65903 0,10.9284 0,10.9284 -1.85209,10.9284 -1.85208,0 -1.85208,0 -1.85208,-21.69583 z"
       id="path1934"
       inkscape:export-filename="logo.svg"
       inkscape:export-xdpi="96"
       inkscape:export-ydpi="96" /></g></svg>
